<svg width="128" height="96" viewBox="0 0 128 96" fill="none" xmlns="http://www.w3.org/2000/svg">
<path d="M160 128C160 145.673 145.673 160 128 160C110.327 160 96 145.673 96 128C96 110.327 110.327 96 128 96C145.673 96 160 110.327 160 128Z" fill="white" fill-opacity="0.4"/>
<path fill-rule="evenodd" clip-rule="evenodd" d="M192 128C192 163.346 163.346 192 128 192C92.6538 192 64 163.346 64 128C64 92.6538 92.6538 64 128 64C163.346 64 192 92.6538 192 128ZM128 160C145.673 160 160 145.673 160 128C160 110.327 145.673 96 128 96C110.327 96 96 110.327 96 128C96 145.673 110.327 160 128 160Z" fill="white" fill-opacity="0.3"/>
<path fill-rule="evenodd" clip-rule="evenodd" d="M224 128C224 181.019 181.019 224 128 224C74.9807 224 32 181.019 32 128C32 74.9807 74.9807 32 128 32C181.019 32 224 74.9807 224 128ZM128 192C163.346 192 192 163.346 192 128C192 92.6538 163.346 64 128 64C92.6538 64 64 92.6538 64 128C64 163.346 92.6538 192 128 192Z" fill="white" fill-opacity="0.2"/>
<path fill-rule="evenodd" clip-rule="evenodd" d="M256 128C256 198.692 198.692 256 128 256C57.3076 256 0 198.692 0 128C0 57.3076 57.3076 0 128 0C198.692 0 256 57.3076 256 128ZM128 224C181.019 224 224 181.019 224 128C224 74.9807 181.019 32 128 32C74.9807 32 32 74.9807 32 128C32 181.019 74.9807 224 128 224Z" fill="white" fill-opacity="0.1"/>
<path d="M128 0.5C198.416 0.5 255.5 57.5837 255.5 128C255.5 198.416 198.416 255.5 128 255.5C57.5837 255.5 0.5 198.416 0.5 128C0.5 57.5837 57.5837 0.5 128 0.5ZM223.5 128C223.5 180.743 180.743 223.5 128 223.5C75.2568 223.5 32.5 180.743 32.5 128C32.5 75.2568 75.2568 32.5 128 32.5C180.743 32.5 223.5 75.2568 223.5 128ZM191.5 128C191.5 163.07 163.07 191.5 128 191.5C92.9299 191.5 64.5 163.07 64.5 128C64.5 92.9299 92.9299 64.5 128 64.5C163.07 64.5 191.5 92.9299 191.5 128ZM159.5 128C159.5 145.397 145.397 159.5 128 159.5C110.603 159.5 96.5 145.397 96.5 128C96.5 110.603 110.603 96.5 128 96.5C145.397 96.5 159.5 110.603 159.5 128ZM160.5 128C160.5 110.051 145.949 95.5 128 95.5C110.051 95.5 95.5 110.051 95.5 128C95.5 145.949 110.051 160.5 128 160.5C145.949 160.5 160.5 145.949 160.5 128ZM192.5 128C192.5 92.3776 163.622 63.5 128 63.5C92.3776 63.5 63.5 92.3776 63.5 128C63.5 163.622 92.3776 192.5 128 192.5C163.622 192.5 192.5 163.622 192.5 128ZM224.5 128C224.5 74.7045 181.295 31.5 128 31.5C74.7045 31.5 31.5 74.7045 31.5 128C31.5 181.295 74.7045 224.5 128 224.5C181.295 224.5 224.5 181.295 224.5 128Z" stroke="white" stroke-opacity="0.1"/>
</svg>
